<?xml version="1.0" encoding="utf-8"?>
<!-- Generator: Adobe Illustrator 22.0.0, SVG Export Plug-In . SVG Version: 6.00 Build 0)  -->
<svg version="1.1" id="Layer_1" xmlns="http://www.w3.org/2000/svg" xmlns:xlink="http://www.w3.org/1999/xlink" x="0px" y="0px"
	 viewBox="0 0 248.4 101.8" style="enable-background:new 0 0 248.4 101.8;" xml:space="preserve">
<style type="text/css">
	.st0{font-family:'SFMono-Regular';}
	.st1{font-size:20px;}
</style>
<path d="M101.4,29.3c0-1.1,0.9-2,2-2c1.1,0,2,0.9,2,2s-0.9,2-2,2C102.3,31.3,101.4,30.4,101.4,29.3z M118.4,31.3c1.1,0,2-0.9,2-2
	s-0.9-2-2-2s-2,0.9-2,2S117.3,31.3,118.4,31.3z M131.4,60.3v5c0,1.7-1.3,3-3,3h-42c-1.7,0-3-1.3-3-3v-5c0-3.3,2.7-6,6-6h7v-2h-1
	c-3.3,0-6-2.7-6-6v-9.5c-3.9-3-4.6-8.5-1.6-12.4c0.5-0.6,1-1.1,1.6-1.6v-6.5c0-3.3,2.7-6,6-6h15.8v-7c0-0.6,0.4-1,1-1s1,0.4,1,1v7
	h6.2c3.3,0,6,2.7,6,6v30c0,3.3-2.7,6-6,6h-1v2h7C128.7,54.3,131.4,57,131.4,60.3z M91.4,23.3v10.8h13.9c0.2,0,0.5,0.1,0.6,0.2
	l5.4,4.6l5.3-4.5c0.2-0.2,0.4-0.2,0.7-0.2h6v-18c0-2.2-1.8-4-4-4h-24c-2.2,0-4,1.8-4,4V23.3z M89.4,34v-8.4
	C87.5,28.1,87.5,31.5,89.4,34z M95.4,50.3h24c2.2,0,4-1.8,4-4v-10h-5.6l-5.7,4.8c-0.2,0.1-0.4,0.2-0.6,0.2c-0.2,0-0.5-0.1-0.7-0.2
	l-5.8-4.9H91.4v10.2C91.4,48.5,93.2,50.3,95.4,50.3z M98.4,54.3h18v-2h-18V54.3z M115.3,66.3c-0.4-2.2-2.6-3.6-4.7-3.1
	c-1.6,0.3-2.8,1.5-3.1,3.1H115.3z M129.4,60.3c0-2.2-1.8-4-4-4h-36c-2.2,0-4,1.8-4,4v5c0,0.6,0.4,1,1,1h19c0.3-3.3,3.2-5.7,6.5-5.4
	c2.9,0.3,5.2,2.5,5.4,5.4h11c0.6,0,1-0.4,1-1V60.3z M124.4,58.3h-4c-0.6,0-1,0.4-1,1s0.4,1,1,1h4c0.6,0,1,0.4,1,1v3c0,0.6,0.4,1,1,1
	s1-0.4,1-1v-3C127.4,59.6,126.1,58.3,124.4,58.3z M134,19.9c0-7.7,6.2-13.9,13.9-13.9c7.7,0,13.9,6.2,13.9,13.9s-6.2,13.9-13.9,13.9
	C140.2,33.8,134,27.6,134,19.9z M136,19.9c0,6.6,5.3,11.9,11.9,11.9s11.9-5.3,11.9-11.9s-5.3-11.9-11.9-11.9
	C141.4,8.1,136,13.4,136,19.9z M146.3,15.6c0-1.9,1.6-3.5,3.5-3.5s3.5,1.6,3.5,3.5c0,1.9-1.6,3.5-3.5,3.5S146.3,17.6,146.3,15.6z
	 M148.3,15.6c0,0.8,0.7,1.5,1.5,1.5s1.5-0.7,1.5-1.5c0-0.8-0.7-1.5-1.5-1.5S148.3,14.8,148.3,15.6z M139.2,21.2
	c0-1.9,1.6-3.5,3.5-3.5s3.5,1.6,3.5,3.5s-1.6,3.5-3.5,3.5C140.7,24.6,139.2,23.1,139.2,21.2z M141.2,21.2c0,0.8,0.7,1.5,1.5,1.5
	s1.5-0.7,1.5-1.5s-0.7-1.5-1.5-1.5C141.8,19.7,141.2,20.3,141.2,21.2C141.2,21.2,141.2,21.2,141.2,21.2z M151.4,20.9
	c1.9,0,3.5,1.6,3.5,3.5s-1.6,3.5-3.5,3.5s-3.5-1.6-3.5-3.5S149.5,20.9,151.4,20.9z M151.4,22.9c-0.8,0-1.5,0.7-1.5,1.5
	s0.7,1.5,1.5,1.5s1.5-0.7,1.5-1.5S152.2,22.9,151.4,22.9z M144.8,59.8c-2.8,0-5-2.2-5-5v-9c0-2.8,2.2-5,5-5h14c2.8,0,5,2.2,5,5v9
	c0,2.8-2.2,5-5,5h-0.2c-1.6,3.6-6.5,4-6.7,4h-0.1c-0.6,0-1-0.5-1-1c0-0.4,0.2-0.7,0.5-0.9c0.7-0.5,1.2-1.3,1.2-2.1H144.8z
	 M144.8,57.8h8.8c0.5,0,1,0.4,1,0.9c0,0.8-0.1,1.6-0.3,2.4c1.2-0.4,2.2-1.4,2.6-2.6c0.1-0.4,0.5-0.8,1-0.7h0.9c1.7,0,3-1.3,3-3v-9
	c0-1.7-1.3-3-3-3h-14c-1.7,0-3,1.3-3,3v9C141.8,56.5,143.1,57.8,144.8,57.8z M146.8,48.8h10c0.6,0,1-0.4,1-1s-0.4-1-1-1h-10
	c-0.6,0-1,0.4-1,1S146.2,48.8,146.8,48.8z M146.8,53.8h7c0.6,0,1-0.4,1-1s-0.4-1-1-1h-7c-0.6,0-1,0.4-1,1S146.2,53.8,146.8,53.8z"/>
<text transform="matrix(1 0 0 1 -0.2279 96.179)" class="st0 st1">robocrystallographer</text>
</svg>
