<?xml version="1.0" encoding="utf-8"?>
<!-- Generator: Adobe Illustrator 23.0.1, SVG Export Plug-In . SVG Version: 6.00 Build 0)  -->
<svg version="1.1" id="Layer_1" xmlns="http://www.w3.org/2000/svg" xmlns:xlink="http://www.w3.org/1999/xlink" x="0px" y="0px"
	 viewBox="0 0 82 67.7" style="enable-background:new 0 0 82 67.7;" xml:space="preserve">
<style type="text/css">
	.st0{fill:#FCFCFC;}
	.st1{fill:#FFFFFF;}
	.st2{fill:#0DB14B;stroke:#0DB14B;stroke-width:1.55;stroke-linecap:round;stroke-miterlimit:10;}
	.st3{fill:#0DB14B;}
</style>
<polygon class="st0" points="1.8,65.1 1.8,57.1 4.9,54.5 11.5,54 14.8,54 14.8,49.9 34.8,49.9 34.8,54.2 43.9,54.2 47.5,57.5 
	47.5,65.1 46.8,66.1 3.5,66.1 "/>
<polygon class="st0" points="59.2,42.5 58.1,43.9 58.1,55.1 61.1,57.5 70.7,57.5 71,60.8 72.7,60.6 75.2,58 77.2,57.1 80.1,55.1 
	80.1,42.9 77.2,41 73.9,41 60.6,41 "/>
<polygon class="st0" points="65.3,5.7 71.3,7.2 75.2,10.5 77.2,14.4 77.9,17.9 77.9,22.8 75.2,26.4 72.8,29.4 67.7,31.3 62.8,31.3 
	58.6,30.1 55.9,27.6 53.4,24.4 52.6,21.7 52.6,17.9 52.6,14.4 54.5,12 57.2,8.3 61.1,6.3 "/>
<polygon class="st1" points="7.5,22.7 3.9,28.1 7,34.9 "/>
<polygon class="st0" points="17.5,10 37.8,10 40.8,11.7 41.8,15.2 41.8,46.6 39.1,49.9 11,49.9 7.9,46.6 7.9,13.6 9.7,11 12.7,10 
	"/>
<g>
	<path d="M3.8,66.6c-1.5,0-2.6-1.1-2.6-2.6v-5c0-3.1,2.5-5.6,5.6-5.6h7.4v-2.9h-1.4c-3.1,0-5.6-2.5-5.6-5.6v-9.7l-0.2-0.1
		c-3.7-2.9-4.4-8.1-1.5-11.8c0.5-0.6,1-1,1.5-1.5l0.2-0.1v-6.7c0-3.1,2.5-5.6,5.6-5.6H29V2.1c0-0.4,0.2-0.6,0.6-0.6s0.6,0.2,0.6,0.6
		v7.4h6.6c3.1,0,5.6,2.5,5.6,5.6v30c0,3.3-2.3,5.6-5.6,5.6h-1.4v2.9h7.4c3.1,0,5.6,2.5,5.6,5.6v5c0,1.5-1.1,2.6-2.6,2.6H3.8z
		 M28.8,60.1c0.2,0,0.3,0,0.5,0c2.8,0.3,4.8,2.3,5,5l0,0.4h11.4c0.9,0,1.5-0.6,1.5-1.4v-5c0-2.4-2-4.4-4.4-4.4h-36
		c-2.4,0-4.4,2-4.4,4.4v5c0,0.8,0.6,1.4,1.4,1.4h19.4l0-0.4C23.5,62.2,25.9,60.1,28.8,60.1z M28.9,61.4c-0.3,0-0.6,0-1,0.1
		c-1.7,0.3-3.1,1.7-3.4,3.4l-0.1,0.5h8.8L33.1,65C32.8,63,30.9,61.4,28.9,61.4z M15.4,53.5h18.9v-2.9H15.4V53.5z M8.4,45.2
		c0,2.3,2,4.3,4.4,4.3h24c2.6,0,4.4-1.9,4.4-4.4V34.6h-6.2l-5.8,4.9c-0.1,0-0.2,0.1-0.3,0.1c-0.1,0-0.3-0.1-0.5-0.1l-5.9-5H8.4V45.2
		z M12.7,10.5c-2.4,0-4.4,2-4.4,4.4v7.3l0.1,11h14.3c0.1,0,0.3,0.1,0.3,0.1l5.7,4.8l5.6-4.7c0.1-0.1,0.1-0.1,0.4-0.1l6.5,0.1V14.9
		c0-2.4-2-4.4-4.5-4.4H12.7z M6.5,24.1c-2,2.7-2,6.2,0,8.9l0.8,1V23.1L6.5,24.1z M43.8,63.6c-0.4,0-0.6-0.2-0.6-0.6v-3
		c0-0.8-0.6-1.4-1.4-1.4h-4c-0.4,0-0.6-0.2-0.6-0.6s0.2-0.6,0.6-0.6h4c1.5,0,2.6,1.1,2.6,2.6v3C44.4,63.4,44.2,63.6,43.8,63.6z
		 M69.2,62.1c-0.4,0-0.6-0.3-0.6-0.6c0-0.2,0.1-0.4,0.3-0.5c0.9-0.6,1.4-1.6,1.4-2.5v-0.4h-8.1c-2.6,0-4.6-2-4.6-4.6v-9
		c0-2.6,2-4.6,4.6-4.6h14c2.6,0,4.6,2,4.6,4.6v9c0,2.6-2,4.6-4.6,4.6h-0.5l-0.1,0.3C74.1,61.8,69.4,62.1,69.2,62.1L69.2,62.1z
		 M62.2,41.1c-1.9,0-3.4,1.5-3.4,3.4v9c0,1.9,1.5,3.4,3.4,3.4H71c0.3,0,0.6,0.2,0.6,0.5c0,0.8-0.1,1.5-0.3,2.3l-0.2,0.8l0.7-0.2
		c1.3-0.4,2.4-1.5,2.9-2.9c0.1-0.2,0.2-0.4,0.4-0.4l0,0l0.1,0h0.9c1.9,0,3.4-1.5,3.4-3.4v-9c0-1.9-1.5-3.4-3.4-3.4H62.2z M64.2,52.1
		c-0.4,0-0.6-0.2-0.6-0.6s0.2-0.6,0.6-0.6h7c0.4,0,0.6,0.2,0.6,0.6s-0.2,0.6-0.6,0.6H64.2z M64.2,47.1c-0.4,0-0.6-0.2-0.6-0.6
		s0.2-0.6,0.6-0.6h10c0.4,0,0.6,0.2,0.6,0.6s-0.2,0.6-0.6,0.6H64.2z M65.3,32.1c-7.4,0-13.5-6-13.5-13.5s6-13.5,13.5-13.5
		c7.4,0,13.5,6,13.5,13.5S72.7,32.1,65.3,32.1z M65.3,6.3C58.5,6.4,53,12,53,18.7C53,25.4,58.5,31,65.3,31s12.3-5.5,12.3-12.3
		C77.6,11.9,72.1,6.3,65.3,6.3L65.3,6.3L65.3,6.3z M35.8,29.6c-0.9,0-1.6-0.7-1.6-1.6s0.7-1.6,1.6-1.6s1.6,0.7,1.6,1.6
		S36.7,29.6,35.8,29.6z M20.8,29.6c-0.9,0-1.6-0.7-1.6-1.6s0.7-1.6,1.6-1.6s1.6,0.7,1.6,1.6S21.7,29.6,20.8,29.6z M68.8,26.2
		c-1.7,0-3.1-1.4-3.1-3.1s1.4-3.1,3.1-3.1s3.1,1.4,3.1,3.1S70.5,26.2,68.8,26.2z M68.8,21.2c-1,0-1.9,0.9-1.9,1.9s0.9,1.9,1.9,1.9
		s1.9-0.9,1.9-1.9S69.9,21.2,68.8,21.2z M60.1,23C58.4,22.9,57,21.6,57,20c0-1.7,1.4-3.1,3.1-3.1s3.1,1.4,3.1,3.1
		C63.2,21.6,61.8,23,60.1,23z M60.1,18c-1.1,0-1.9,0.8-1.9,1.9c0,1,0.9,1.9,1.9,1.9S62,21,62,20S61.2,18,60.1,18z M67.2,17.4
		c-1.7,0-3.1-1.4-3.1-3.1c0-1.7,1.4-3.1,3.1-3.1s3.1,1.4,3.1,3.1S68.9,17.4,67.2,17.4z M67.2,12.4c-1,0-1.9,0.9-1.9,1.9
		s0.9,1.9,1.9,1.9s1.9-0.9,1.9-1.9S68.3,12.4,67.2,12.4z"/>
	<line class="st2" x1="64.2" y1="51.6" x2="71.3" y2="51.6"/>
	<circle class="st3" cx="68.8" cy="23.2" r="3.3"/>
	<circle class="st0" cx="68.8" cy="23.2" r="1.7"/>
</g>
</svg>
